<svg xmlns="http://www.w3.org/2000/svg" style="display: none;">
  <defs>
    <symbol id="icon-email" viewBox="-5.0 -10.0 110.0 135.0">
        <path d="m15.625 81.117h68.75c5.168 0 9.375-4.207 9.375-9.375v-43.484c0-2.8047-1.2578-5.293-3.2148-7.0117-0.03125-0.035156-0.039062-0.078125-0.074218-0.11328-0.089844-0.089843-0.21094-0.12891-0.30859-0.20703-1.5977-1.2617-3.5859-2.0469-5.7734-2.0469h-68.754c-2.1875 0-4.1797 0.78516-5.7734 2.0469-0.10156 0.078125-0.21875 0.11719-0.30859 0.20703-0.03125 0.03125-0.042969 0.078126-0.074219 0.11328-1.957 1.7188-3.2148 4.2109-3.2148 7.0117v43.484c0 5.168 4.207 9.375 9.375 9.375zm2.1484-6.25 20.539-20.539 5.0586 5.0586c1.8281 1.8281 4.2266 2.7422 6.6289 2.7422 2.3984 0 4.8008-0.91406 6.6289-2.7422l5.0586-5.0586 20.539 20.539zm69.727-46.355v42.785l-21.395-21.395 21.395-21.395zm-5.457-3.3828-29.836 29.832c-1.2188 1.2188-3.1992 1.2188-4.418 0l-29.832-29.828h64.086zm-69.543 3.3828 21.395 21.395-21.395 21.395z"/>
    </symbol>

    <symbol id="icon-github" viewBox="0 0 100 125"> 
        <path d="M71.72,43.9a12.89,12.89,0,0,0-2.87-8.06A13,13,0,0,0,68.29,28a1.73,1.73,0,0,0-1.09-1c-.7-.24-3.35-.69-8.75,2.81a26.1,26.1,0,0,0-7.12-.86,26.13,26.13,0,0,0-7.13.86c-5.54-3.58-8.42-3-9-2.83A1.75,1.75,0,0,0,34.11,28a13,13,0,0,0-.58,7.82,12.22,12.22,0,0,0-2.86,8.12C30.67,55,37,58.34,42.8,59.52a9.38,9.38,0,0,0-.61,2.27,1,1,0,0,0,0,.25V65.1c-5.28.44-6.41-2.65-6.52-3a2.34,2.34,0,0,0-.09-.24,8.85,8.85,0,0,0-5-4.45,1.75,1.75,0,0,0-1.11,3.32,5.29,5.29,0,0,1,2.84,2.43c.7,2.27,3.56,5.86,9.86,5.46v2.88a1.75,1.75,0,0,0,3.5,0V62.17a5,5,0,0,1,1.27-2.73,1.74,1.74,0,0,0-1-3c-6.1-.71-11.74-2.72-11.74-12.57a8.6,8.6,0,0,1,2.56-6.42,1.86,1.86,0,0,0,.4-1.86,8.67,8.67,0,0,1-.11-5.3,15.21,15.21,0,0,1,5.91,2.77,1.79,1.79,0,0,0,1.54.21,21.63,21.63,0,0,1,6.86-.93,21.56,21.56,0,0,1,6.85.93,1.78,1.78,0,0,0,1.54-.21,15.72,15.72,0,0,1,5.66-2.75,8.85,8.85,0,0,1-.13,5.35,1.73,1.73,0,0,0,.34,1.7,9.74,9.74,0,0,1,2.63,6.51c0,9.83-5.93,11.87-11.74,12.57a1.74,1.74,0,0,0-.84,3.13c.62.47,1.34,1.79,1.34,4v7.92a1.75,1.75,0,0,0,3.5,0V63.57a10.66,10.66,0,0,0-.75-4.07C64.46,58.5,71.72,55.41,71.72,43.9Z"/>
    </symbol>

    <symbol id="icon-linkedin" viewBox="0 0 64 80"> 
        <path d="M64,19.819c0-6.292-5.118-11.41-11.41-11.41s-11.411,5.118-11.411,11.41c0,3.521,1.604,6.672,4.118,8.767  c0.039,0.035,0.079,0.066,0.122,0.098c0.747,0.605,1.575,1.113,2.46,1.517l-4.743,7.253c-0.928-0.353-1.915-0.581-2.944-0.662  l-8.516-12.912c1.801-1.913,2.913-4.48,2.913-7.308c0-5.888-4.79-10.678-10.678-10.678s-10.679,4.79-10.679,10.678  c0,2.838,1.121,5.415,2.934,7.33l-3.702,5.916c-0.582-0.099-1.176-0.162-1.785-0.162C4.791,29.656,0,34.446,0,40.334  c0,3.292,1.499,6.239,3.848,8.199c0.041,0.036,0.083,0.069,0.127,0.102c1.834,1.484,4.166,2.378,6.704,2.378  c2.525,0,4.844-0.886,6.674-2.355c0.063-0.044,0.123-0.091,0.179-0.144c2.336-1.961,3.826-4.898,3.826-8.18  c0-4.189-2.432-7.813-5.953-9.561l3.125-4.994c1.583,0.929,3.418,1.471,5.382,1.471c1.977,0,3.823-0.549,5.412-1.489l7.461,11.314  c-4.648,1.155-8.107,5.353-8.107,10.354c0,3.287,1.495,6.229,3.838,8.189c0.046,0.042,0.095,0.081,0.146,0.117  c1.833,1.48,4.161,2.371,6.695,2.371c2.529,0,4.853-0.888,6.684-2.363c0.058-0.04,0.111-0.083,0.163-0.131  c2.339-1.96,3.831-4.9,3.831-8.184c0-3.48-1.681-6.567-4.265-8.519l5.115-7.822c0.558,0.084,1.125,0.142,1.706,0.142  c2.699,0,5.178-0.947,7.134-2.519c0.066-0.045,0.129-0.095,0.188-0.151C62.407,26.465,64,23.326,64,19.819z M6.501,46.769  c0.534-1.821,2.207-3.113,4.177-3.113c1.97,0,3.643,1.292,4.177,3.113c-1.204,0.784-2.636,1.244-4.177,1.244  S7.705,47.553,6.501,46.769z M8.855,38.831c0-1.005,0.818-1.823,1.823-1.823s1.823,0.818,1.823,1.823  c0,1.006-0.818,1.824-1.823,1.824S8.855,39.837,8.855,38.831z M18.357,40.334c0,1.527-0.453,2.947-1.225,4.145  c-0.619-1.137-1.523-2.086-2.62-2.753c0.612-0.809,0.989-1.804,0.989-2.895c0-2.659-2.164-4.823-4.823-4.823  s-4.823,2.164-4.823,4.823c0,1.09,0.377,2.086,0.989,2.895c-1.097,0.667-2.001,1.616-2.62,2.753C3.453,43.281,3,41.86,3,40.334  c0-4.233,3.445-7.678,7.679-7.678S18.357,36.101,18.357,40.334z M23.911,8.894c4.234,0,7.678,3.444,7.678,7.678  c0,1.527-0.453,2.947-1.224,4.144c-0.62-1.137-1.524-2.086-2.62-2.753c0.612-0.809,0.989-1.804,0.989-2.894  c0-2.66-2.164-4.824-4.823-4.824c-2.66,0-4.823,2.164-4.823,4.824c0,1.09,0.377,2.085,0.989,2.894  c-1.097,0.667-2.001,1.616-2.62,2.752c-0.771-1.197-1.224-2.617-1.224-4.144C16.232,12.338,19.677,8.894,23.911,8.894z   M22.087,15.069c0-1.006,0.818-1.824,1.823-1.824c1.005,0,1.823,0.818,1.823,1.824c0,1.005-0.818,1.823-1.823,1.823  C22.905,16.893,22.087,16.075,22.087,15.069z M19.733,23.005c0.534-1.821,2.208-3.113,4.178-3.113c1.97,0,3.643,1.292,4.177,3.113  c-1.204,0.784-2.637,1.245-4.177,1.245S20.937,23.79,19.733,23.005z M35.178,53.862c0.534-1.821,2.207-3.113,4.178-3.113  c1.97,0,3.643,1.292,4.177,3.113c-1.204,0.784-2.637,1.244-4.177,1.244C37.814,55.106,36.382,54.646,35.178,53.862z M37.531,45.926  c0-1.006,0.818-1.824,1.824-1.824c1.005,0,1.823,0.818,1.823,1.824c0,1.005-0.818,1.823-1.823,1.823  C38.35,47.749,37.531,46.931,37.531,45.926z M47.033,47.429c0,1.526-0.453,2.946-1.224,4.144c-0.62-1.137-1.523-2.086-2.62-2.753  c0.612-0.809,0.989-1.804,0.989-2.894c0-2.66-2.164-4.824-4.823-4.824c-2.66,0-4.824,2.164-4.824,4.824  c0,1.09,0.377,2.085,0.989,2.894c-1.097,0.667-2,1.616-2.62,2.753c-0.771-1.197-1.224-2.617-1.224-4.144  c0-4.234,3.444-7.68,7.679-7.68C43.589,39.749,47.033,43.194,47.033,47.429z M44.179,19.819c0-4.637,3.773-8.41,8.411-8.41  S61,15.182,61,19.819c0,1.744-0.533,3.365-1.445,4.709c-0.681-1.331-1.73-2.426-3.009-3.172c0.697-0.871,1.132-1.96,1.132-3.16  c0-2.806-2.282-5.089-5.088-5.089s-5.089,2.283-5.089,5.089c0,1.199,0.435,2.289,1.132,3.159c-1.278,0.747-2.328,1.841-3.009,3.172  C44.712,23.184,44.179,21.563,44.179,19.819z M50.501,18.197c0-1.152,0.938-2.089,2.089-2.089s2.088,0.937,2.088,2.089  c0,1.151-0.937,2.088-2.088,2.088S50.501,19.349,50.501,18.197z M47.947,26.826c0.561-2.064,2.429-3.541,4.643-3.541  c2.213,0,4.08,1.476,4.643,3.541c-1.332,0.885-2.927,1.404-4.643,1.404S49.278,27.711,47.947,26.826z"/>
    </symbol>

    <symbol id="icon-python" viewBox="-5.0 -10.0 110.0 135.0"> 
        <path d="m40.711 40.707v-2.7422c0-1.8125 0.74219-3.4648 1.9375-4.6602l0.007812-0.007813c1.1953-1.1953 2.8477-1.9375 4.6562-1.9375h5.3711c1.8125 0 3.4648 0.74219 4.6602 1.9375l0.007812 0.007813c1.1953 1.1953 1.9375 2.8477 1.9375 4.6562v2.7422h2.7422c1.8125 0 3.4648 0.74219 4.6641 1.9414 1.1992 1.1914 1.9414 2.8438 1.9414 4.6641v5.3711c0 1.8125-0.74219 3.4648-1.9375 4.6602l-0.007813 0.007812c-1.1953 1.1953-2.8477 1.9375-4.6562 1.9375h-2.7422v2.7422c0 1.8086-0.74219 3.4609-1.9375 4.6562l-0.007813 0.007812c-1.1992 1.1953-2.8516 1.9375-4.6602 1.9375h-5.3711c-1.8086 0-3.4609-0.74219-4.6562-1.9375l-0.007812-0.007812c-1.1953-1.1992-1.9375-2.8516-1.9375-4.6602v-2.7422h-2.7422c-1.8164 0-3.4688-0.74219-4.668-1.9375l-0.085938-0.09375c-1.1445-1.1875-1.8516-2.8047-1.8516-4.5742v-5.3711c0-1.8125 0.74219-3.4648 1.9375-4.6602l0.007812-0.007812c1.1953-1.1953 2.8477-1.9375 4.6562-1.9375h2.7422zm-15.117 44.918h38.418c0.82812 0 1.5 0.67188 1.5 1.5s-0.67188 1.5-1.5 1.5h-38.418v4.875h48.816v-4.875h-4.2734c-0.82812 0-1.5-0.67188-1.5-1.5s0.67188-1.5 1.5-1.5h4.2734v-71.25h-48.816v12.223c0 0.82812-0.67188 1.5-1.5 1.5s-1.5-0.67188-1.5-1.5v-21.598c0-0.82812 0.67188-1.5 1.5-1.5h51.816c0.82812 0 1.5 0.67188 1.5 1.5v90c0 0.82812-0.67188 1.5-1.5 1.5h-51.816c-0.82812 0-1.5-0.67188-1.5-1.5v-55.875c0-0.82812 0.67188-1.5 1.5-1.5s1.5 0.67188 1.5 1.5zm0-74.25h48.816v-4.875h-48.816zm24.238 81.176c-0.82031-0.082031-1.418-0.82031-1.3359-1.6406 0.082031-0.82031 0.82031-1.418 1.6406-1.3359l0.035156 0.003906c0.82031 0.082031 1.418 0.82031 1.3359 1.6406-0.082031 0.82031-0.82031 1.418-1.6406 1.3359zm-6.2305-82.113c-0.82812 0-1.5-0.67188-1.5-1.5s0.67188-1.5 1.5-1.5h1.6914c0.82812 0 1.5 0.67188 1.5 1.5s-0.67188 1.5-1.5 1.5zm6.3984 0c-0.82812 0-1.5-0.67188-1.5-1.5s0.67188-1.5 1.5-1.5h6.3984c0.82812 0 1.5 0.67188 1.5 1.5s-0.67188 1.5-1.5 1.5zm-24.41 22.562c0 0.82812-0.67188 1.5-1.5 1.5s-1.5-0.67188-1.5-1.5v-0.27734c0-0.82812 0.67188-1.5 1.5-1.5s1.5 0.67188 1.5 1.5zm27.445 30.844c-0.83203 0-1.5039-0.67188-1.5039-1.5s0.67188-1.5 1.5-1.5c0.83594 0 1.5078 0.67188 1.5078 1.5s-0.67187 1.5-1.5039 1.5zm-6.0781-24.688c-0.83203 0-1.5039-0.67188-1.5039-1.5s0.67188-1.5 1.5-1.5c0.83594 0 1.5078 0.67188 1.5078 1.5s-0.67188 1.5-1.5039 1.5zm12.332 4.5508v1.1797c0 1.8203-0.74219 3.4766-1.9375 4.6719-1.1992 1.1992-2.8516 1.9414-4.6719 1.9414l-5.3555-0.007812c-0.99219 0.007812-1.8984 0.41406-2.5508 1.0664-0.65234 0.65234-1.0625 1.5586-1.0625 2.5508v6.9219c0 0.99219 0.40625 1.8984 1.0547 2.5469 0.65625 0.65625 1.5586 1.0625 2.5508 1.0625h5.3711c0.99219 0 1.8984-0.40625 2.5469-1.0547 0.65625-0.65625 1.0625-1.5586 1.0625-2.5508v-2.7422h-6.293c-0.82812 0-1.5-0.67188-1.5-1.5s0.67188-1.5 1.5-1.5h12.031c0.99219 0 1.8984-0.40625 2.5469-1.0547 0.65625-0.65625 1.0625-1.5586 1.0625-2.5508v-5.3711c0-0.98828-0.40625-1.8906-1.0625-2.5469-0.64844-0.65625-1.5508-1.0625-2.5469-1.0625zm-18.582 12.582v-1.1797c0-1.8203 0.74219-3.4766 1.9375-4.6719 1.1992-1.1992 2.8516-1.9414 4.6719-1.9414l5.3555 0.007812c0.99219-0.007812 1.8984-0.41406 2.5508-1.0664s1.0625-1.5586 1.0625-2.5508v-6.9219c0-0.99219-0.40625-1.8984-1.0547-2.5469-0.65625-0.65625-1.5586-1.0625-2.5508-1.0625h-5.3711c-0.99219 0-1.8984 0.40625-2.5469 1.0547-0.65625 0.65625-1.0625 1.5586-1.0625 2.5508v2.7422h6.293c0.82812 0 1.5 0.67188 1.5 1.5s-0.67188 1.5-1.5 1.5h-12.035c-0.99219 0-1.8984 0.40625-2.5469 1.0547-0.65625 0.65625-1.0625 1.5586-1.0625 2.5508v5.3711c0 0.96094 0.37891 1.8359 0.99219 2.4805l0.070312 0.066406c0.65234 0.65234 1.5547 1.0625 2.5469 1.0625z"/>
    </symbol>

  </defs>
</svg>