<svg xmlns="http://www.w3.org/2000/svg" version="1.1" viewBox="-5.0 -10.0 110.0 135.0">
 <path d="m15.625 81.117h68.75c5.168 0 9.375-4.207 9.375-9.375v-43.484c0-2.8047-1.2578-5.293-3.2148-7.0117-0.03125-0.035156-0.039062-0.078125-0.074218-0.11328-0.089844-0.089843-0.21094-0.12891-0.30859-0.20703-1.5977-1.2617-3.5859-2.0469-5.7734-2.0469h-68.754c-2.1875 0-4.1797 0.78516-5.7734 2.0469-0.10156 0.078125-0.21875 0.11719-0.30859 0.20703-0.03125 0.03125-0.042969 0.078126-0.074219 0.11328-1.957 1.7188-3.2148 4.2109-3.2148 7.0117v43.484c0 5.168 4.207 9.375 9.375 9.375zm2.1484-6.25 20.539-20.539 5.0586 5.0586c1.8281 1.8281 4.2266 2.7422 6.6289 2.7422 2.3984 0 4.8008-0.91406 6.6289-2.7422l5.0586-5.0586 20.539 20.539zm69.727-46.355v42.785l-21.395-21.395 21.395-21.395zm-5.457-3.3828-29.836 29.832c-1.2188 1.2188-3.1992 1.2188-4.418 0l-29.832-29.828h64.086zm-69.543 3.3828 21.395 21.395-21.395 21.395z"/>
<text x="0.0" y="117.5" font-size="5.0" font-weight="bold" font-family="Arbeit Regular, Helvetica, Arial-Unicode, Arial, Sans-serif" fill="#000000">Created by Kiki Rizky</text><text x="0.0" y="122.5" font-size="5.0" font-weight="bold" font-family="Arbeit Regular, Helvetica, Arial-Unicode, Arial, Sans-serif" fill="#000000">from Noun Project</text></svg>