<svg xmlns="http://www.w3.org/2000/svg" xmlns:xlink="http://www.w3.org/1999/xlink" version="1.1" x="0px" y="0px" viewBox="0 0 64 80" enable-background="new 0 0 64 64" xml:space="preserve"><path d="M64,19.819c0-6.292-5.118-11.41-11.41-11.41s-11.411,5.118-11.411,11.41c0,3.521,1.604,6.672,4.118,8.767  c0.039,0.035,0.079,0.066,0.122,0.098c0.747,0.605,1.575,1.113,2.46,1.517l-4.743,7.253c-0.928-0.353-1.915-0.581-2.944-0.662  l-8.516-12.912c1.801-1.913,2.913-4.48,2.913-7.308c0-5.888-4.79-10.678-10.678-10.678s-10.679,4.79-10.679,10.678  c0,2.838,1.121,5.415,2.934,7.33l-3.702,5.916c-0.582-0.099-1.176-0.162-1.785-0.162C4.791,29.656,0,34.446,0,40.334  c0,3.292,1.499,6.239,3.848,8.199c0.041,0.036,0.083,0.069,0.127,0.102c1.834,1.484,4.166,2.378,6.704,2.378  c2.525,0,4.844-0.886,6.674-2.355c0.063-0.044,0.123-0.091,0.179-0.144c2.336-1.961,3.826-4.898,3.826-8.18  c0-4.189-2.432-7.813-5.953-9.561l3.125-4.994c1.583,0.929,3.418,1.471,5.382,1.471c1.977,0,3.823-0.549,5.412-1.489l7.461,11.314  c-4.648,1.155-8.107,5.353-8.107,10.354c0,3.287,1.495,6.229,3.838,8.189c0.046,0.042,0.095,0.081,0.146,0.117  c1.833,1.48,4.161,2.371,6.695,2.371c2.529,0,4.853-0.888,6.684-2.363c0.058-0.04,0.111-0.083,0.163-0.131  c2.339-1.96,3.831-4.9,3.831-8.184c0-3.48-1.681-6.567-4.265-8.519l5.115-7.822c0.558,0.084,1.125,0.142,1.706,0.142  c2.699,0,5.178-0.947,7.134-2.519c0.066-0.045,0.129-0.095,0.188-0.151C62.407,26.465,64,23.326,64,19.819z M6.501,46.769  c0.534-1.821,2.207-3.113,4.177-3.113c1.97,0,3.643,1.292,4.177,3.113c-1.204,0.784-2.636,1.244-4.177,1.244  S7.705,47.553,6.501,46.769z M8.855,38.831c0-1.005,0.818-1.823,1.823-1.823s1.823,0.818,1.823,1.823  c0,1.006-0.818,1.824-1.823,1.824S8.855,39.837,8.855,38.831z M18.357,40.334c0,1.527-0.453,2.947-1.225,4.145  c-0.619-1.137-1.523-2.086-2.62-2.753c0.612-0.809,0.989-1.804,0.989-2.895c0-2.659-2.164-4.823-4.823-4.823  s-4.823,2.164-4.823,4.823c0,1.09,0.377,2.086,0.989,2.895c-1.097,0.667-2.001,1.616-2.62,2.753C3.453,43.281,3,41.86,3,40.334  c0-4.233,3.445-7.678,7.679-7.678S18.357,36.101,18.357,40.334z M23.911,8.894c4.234,0,7.678,3.444,7.678,7.678  c0,1.527-0.453,2.947-1.224,4.144c-0.62-1.137-1.524-2.086-2.62-2.753c0.612-0.809,0.989-1.804,0.989-2.894  c0-2.66-2.164-4.824-4.823-4.824c-2.66,0-4.823,2.164-4.823,4.824c0,1.09,0.377,2.085,0.989,2.894  c-1.097,0.667-2.001,1.616-2.62,2.752c-0.771-1.197-1.224-2.617-1.224-4.144C16.232,12.338,19.677,8.894,23.911,8.894z   M22.087,15.069c0-1.006,0.818-1.824,1.823-1.824c1.005,0,1.823,0.818,1.823,1.824c0,1.005-0.818,1.823-1.823,1.823  C22.905,16.893,22.087,16.075,22.087,15.069z M19.733,23.005c0.534-1.821,2.208-3.113,4.178-3.113c1.97,0,3.643,1.292,4.177,3.113  c-1.204,0.784-2.637,1.245-4.177,1.245S20.937,23.79,19.733,23.005z M35.178,53.862c0.534-1.821,2.207-3.113,4.178-3.113  c1.97,0,3.643,1.292,4.177,3.113c-1.204,0.784-2.637,1.244-4.177,1.244C37.814,55.106,36.382,54.646,35.178,53.862z M37.531,45.926  c0-1.006,0.818-1.824,1.824-1.824c1.005,0,1.823,0.818,1.823,1.824c0,1.005-0.818,1.823-1.823,1.823  C38.35,47.749,37.531,46.931,37.531,45.926z M47.033,47.429c0,1.526-0.453,2.946-1.224,4.144c-0.62-1.137-1.523-2.086-2.62-2.753  c0.612-0.809,0.989-1.804,0.989-2.894c0-2.66-2.164-4.824-4.823-4.824c-2.66,0-4.824,2.164-4.824,4.824  c0,1.09,0.377,2.085,0.989,2.894c-1.097,0.667-2,1.616-2.62,2.753c-0.771-1.197-1.224-2.617-1.224-4.144  c0-4.234,3.444-7.68,7.679-7.68C43.589,39.749,47.033,43.194,47.033,47.429z M44.179,19.819c0-4.637,3.773-8.41,8.411-8.41  S61,15.182,61,19.819c0,1.744-0.533,3.365-1.445,4.709c-0.681-1.331-1.73-2.426-3.009-3.172c0.697-0.871,1.132-1.96,1.132-3.16  c0-2.806-2.282-5.089-5.088-5.089s-5.089,2.283-5.089,5.089c0,1.199,0.435,2.289,1.132,3.159c-1.278,0.747-2.328,1.841-3.009,3.172  C44.712,23.184,44.179,21.563,44.179,19.819z M50.501,18.197c0-1.152,0.938-2.089,2.089-2.089s2.088,0.937,2.088,2.089  c0,1.151-0.937,2.088-2.088,2.088S50.501,19.349,50.501,18.197z M47.947,26.826c0.561-2.064,2.429-3.541,4.643-3.541  c2.213,0,4.08,1.476,4.643,3.541c-1.332,0.885-2.927,1.404-4.643,1.404S49.278,27.711,47.947,26.826z"/><text x="0" y="79" fill="#000000" font-size="5px" font-weight="bold" font-family="'Helvetica Neue', Helvetica, Arial-Unicode, Arial, Sans-serif">Created by Alex Burte</text><text x="0" y="84" fill="#000000" font-size="5px" font-weight="bold" font-family="'Helvetica Neue', Helvetica, Arial-Unicode, Arial, Sans-serif">from the Noun Project</text></svg>