<svg xmlns="http://www.w3.org/2000/svg" version="1.1" viewBox="-5.0 -10.0 110.0 135.0">
 <path d="m40.711 40.707v-2.7422c0-1.8125 0.74219-3.4648 1.9375-4.6602l0.007812-0.007813c1.1953-1.1953 2.8477-1.9375 4.6562-1.9375h5.3711c1.8125 0 3.4648 0.74219 4.6602 1.9375l0.007812 0.007813c1.1953 1.1953 1.9375 2.8477 1.9375 4.6562v2.7422h2.7422c1.8125 0 3.4648 0.74219 4.6641 1.9414 1.1992 1.1914 1.9414 2.8438 1.9414 4.6641v5.3711c0 1.8125-0.74219 3.4648-1.9375 4.6602l-0.007813 0.007812c-1.1953 1.1953-2.8477 1.9375-4.6562 1.9375h-2.7422v2.7422c0 1.8086-0.74219 3.4609-1.9375 4.6562l-0.007813 0.007812c-1.1992 1.1953-2.8516 1.9375-4.6602 1.9375h-5.3711c-1.8086 0-3.4609-0.74219-4.6562-1.9375l-0.007812-0.007812c-1.1953-1.1992-1.9375-2.8516-1.9375-4.6602v-2.7422h-2.7422c-1.8164 0-3.4688-0.74219-4.668-1.9375l-0.085938-0.09375c-1.1445-1.1875-1.8516-2.8047-1.8516-4.5742v-5.3711c0-1.8125 0.74219-3.4648 1.9375-4.6602l0.007812-0.007812c1.1953-1.1953 2.8477-1.9375 4.6562-1.9375h2.7422zm-15.117 44.918h38.418c0.82812 0 1.5 0.67188 1.5 1.5s-0.67188 1.5-1.5 1.5h-38.418v4.875h48.816v-4.875h-4.2734c-0.82812 0-1.5-0.67188-1.5-1.5s0.67188-1.5 1.5-1.5h4.2734v-71.25h-48.816v12.223c0 0.82812-0.67188 1.5-1.5 1.5s-1.5-0.67188-1.5-1.5v-21.598c0-0.82812 0.67188-1.5 1.5-1.5h51.816c0.82812 0 1.5 0.67188 1.5 1.5v90c0 0.82812-0.67188 1.5-1.5 1.5h-51.816c-0.82812 0-1.5-0.67188-1.5-1.5v-55.875c0-0.82812 0.67188-1.5 1.5-1.5s1.5 0.67188 1.5 1.5zm0-74.25h48.816v-4.875h-48.816zm24.238 81.176c-0.82031-0.082031-1.418-0.82031-1.3359-1.6406 0.082031-0.82031 0.82031-1.418 1.6406-1.3359l0.035156 0.003906c0.82031 0.082031 1.418 0.82031 1.3359 1.6406-0.082031 0.82031-0.82031 1.418-1.6406 1.3359zm-6.2305-82.113c-0.82812 0-1.5-0.67188-1.5-1.5s0.67188-1.5 1.5-1.5h1.6914c0.82812 0 1.5 0.67188 1.5 1.5s-0.67188 1.5-1.5 1.5zm6.3984 0c-0.82812 0-1.5-0.67188-1.5-1.5s0.67188-1.5 1.5-1.5h6.3984c0.82812 0 1.5 0.67188 1.5 1.5s-0.67188 1.5-1.5 1.5zm-24.41 22.562c0 0.82812-0.67188 1.5-1.5 1.5s-1.5-0.67188-1.5-1.5v-0.27734c0-0.82812 0.67188-1.5 1.5-1.5s1.5 0.67188 1.5 1.5zm27.445 30.844c-0.83203 0-1.5039-0.67188-1.5039-1.5s0.67188-1.5 1.5-1.5c0.83594 0 1.5078 0.67188 1.5078 1.5s-0.67187 1.5-1.5039 1.5zm-6.0781-24.688c-0.83203 0-1.5039-0.67188-1.5039-1.5s0.67188-1.5 1.5-1.5c0.83594 0 1.5078 0.67188 1.5078 1.5s-0.67188 1.5-1.5039 1.5zm12.332 4.5508v1.1797c0 1.8203-0.74219 3.4766-1.9375 4.6719-1.1992 1.1992-2.8516 1.9414-4.6719 1.9414l-5.3555-0.007812c-0.99219 0.007812-1.8984 0.41406-2.5508 1.0664-0.65234 0.65234-1.0625 1.5586-1.0625 2.5508v6.9219c0 0.99219 0.40625 1.8984 1.0547 2.5469 0.65625 0.65625 1.5586 1.0625 2.5508 1.0625h5.3711c0.99219 0 1.8984-0.40625 2.5469-1.0547 0.65625-0.65625 1.0625-1.5586 1.0625-2.5508v-2.7422h-6.293c-0.82812 0-1.5-0.67188-1.5-1.5s0.67188-1.5 1.5-1.5h12.031c0.99219 0 1.8984-0.40625 2.5469-1.0547 0.65625-0.65625 1.0625-1.5586 1.0625-2.5508v-5.3711c0-0.98828-0.40625-1.8906-1.0625-2.5469-0.64844-0.65625-1.5508-1.0625-2.5469-1.0625zm-18.582 12.582v-1.1797c0-1.8203 0.74219-3.4766 1.9375-4.6719 1.1992-1.1992 2.8516-1.9414 4.6719-1.9414l5.3555 0.007812c0.99219-0.007812 1.8984-0.41406 2.5508-1.0664s1.0625-1.5586 1.0625-2.5508v-6.9219c0-0.99219-0.40625-1.8984-1.0547-2.5469-0.65625-0.65625-1.5586-1.0625-2.5508-1.0625h-5.3711c-0.99219 0-1.8984 0.40625-2.5469 1.0547-0.65625 0.65625-1.0625 1.5586-1.0625 2.5508v2.7422h6.293c0.82812 0 1.5 0.67188 1.5 1.5s-0.67188 1.5-1.5 1.5h-12.035c-0.99219 0-1.8984 0.40625-2.5469 1.0547-0.65625 0.65625-1.0625 1.5586-1.0625 2.5508v5.3711c0 0.96094 0.37891 1.8359 0.99219 2.4805l0.070312 0.066406c0.65234 0.65234 1.5547 1.0625 2.5469 1.0625z"/>
<text x="0.0" y="117.5" font-size="5.0" font-weight="bold" font-family="Arbeit Regular, Helvetica, Arial-Unicode, Arial, Sans-serif" fill="#000000">Created by Soetarman Atmodjo</text><text x="0.0" y="122.5" font-size="5.0" font-weight="bold" font-family="Arbeit Regular, Helvetica, Arial-Unicode, Arial, Sans-serif" fill="#000000">from Noun Project</text></svg>